<?xml version="1.0" encoding="utf-8"?>
<!-- Generator: Adobe Illustrator 24.1.0, SVG Export Plug-In . SVG Version: 6.00 Build 0)  -->
<svg version="1.1" id="Layer_1" xmlns="http://www.w3.org/2000/svg" xmlns:xlink="http://www.w3.org/1999/xlink" x="0px" y="0px"
	 viewBox="0 0 100 100" style="enable-background:new 0 0 100 100;" xml:space="preserve">
<style type="text/css">
	.st0{opacity:0.6;enable-background:new    ;}
	.st1{fill:none;stroke:#FFFFFF;stroke-width:2;}
	.st2{fill:none;}
	.st3{fill:none;stroke:#E4E4E4;stroke-width:3;}
</style>
<circle id="Ellipse_5" class="st0" cx="50.16" cy="50.07" r="35"/>
<path id="phone" class="st1" d="M37.19,36.03c1.23-1.24,4.96-1.45,4.99-0.79c0.03,0.66,3.36,7.91,3.39,8.56
	c0.03,0.65-2.19,2.88-2.84,3.53c-0.65,0.65,4.35,6.31,4.45,6.41c0.1,0.11,5.75,5.1,6.4,4.46s2.88-2.88,3.53-2.85
	c0.65,0.03,7.89,3.37,8.54,3.4s0.45,3.76-0.79,5c-1.06,1.06-6.52,4.89-16.01-1.96c-1.9-1.29-3.64-2.8-5.2-4.49l0,0l-0.01-0.01
	l-0.01-0.01l0,0c-1.69-1.56-3.19-3.31-4.48-5.21C32.3,42.57,36.13,37.09,37.19,36.03z"/>
<g id="Ellipse_4" transform="translate(0 11)">
	<circle class="st2" cx="50.16" cy="39.07" r="35"/>
	<circle class="st3" cx="50.16" cy="39.07" r="33.5"/>
</g>
</svg>
