<?xml version="1.0" encoding="utf-8"?>
<!-- Generator: Adobe Illustrator 24.1.0, SVG Export Plug-In . SVG Version: 6.00 Build 0)  -->
<svg version="1.1" id="Layer_1" xmlns="http://www.w3.org/2000/svg" xmlns:xlink="http://www.w3.org/1999/xlink" x="0px" y="0px"
	 viewBox="0 0 100 100" style="enable-background:new 0 0 100 100;" xml:space="preserve">
<style type="text/css">
	.st0{opacity:0.6;enable-background:new    ;}
	.st1{fill:#FFFFFF;}
	.st2{fill:none;}
	.st3{font-family:'MyriadPro-Regular';}
	.st4{font-size:50px;}
</style>
<ellipse id="Ellipse_2" class="st0" cx="49.8" cy="49.6" rx="35" ry="34.5"/>
<path id="facebook" class="st1" d="M49.9,14.3c-19.3,0-35,15.7-35,35s15.7,35,35,35s35-15.7,35-35l0,0C84.8,30,69.2,14.4,49.9,14.3z
	 M49.9,82c-18,0-32.7-14.6-32.7-32.7c0-18,14.6-32.7,32.7-32.7c18,0,32.7,14.6,32.7,32.7l0,0C82.5,67.4,67.9,82,49.9,82z"/>
<rect x="12.5" y="25.9" class="st2" width="74" height="46.9"/>
<text transform="matrix(1 0 0 1 31.0851 61.4152)" class="st1 st3 st4">@</text>
</svg>
