<?xml version="1.0" encoding="utf-8"?>
<!-- Generator: Adobe Illustrator 24.1.0, SVG Export Plug-In . SVG Version: 6.00 Build 0)  -->
<svg version="1.1" id="Layer_1" xmlns="http://www.w3.org/2000/svg" xmlns:xlink="http://www.w3.org/1999/xlink" x="0px" y="0px"
	 viewBox="0 0 100 100" style="enable-background:new 0 0 100 100;" xml:space="preserve">
<style type="text/css">
	.st0{opacity:0.6;enable-background:new    ;}
	.st1{fill:#FFFFFF;}
</style>
<circle id="Ellipse_3" class="st0" cx="50.16" cy="50.07" r="35"/>
<path id="linkedin" class="st1" d="M57.84,41.24c-1.2-0.02-2.38,0.27-3.43,0.85c-0.12-0.51-0.61-0.83-1.12-0.74h-6.51
	c-0.45-0.1-0.89,0.18-0.99,0.63c-0.03,0.15-0.03,0.31,0.03,0.46v24.01c-0.13,0.46,0.14,0.94,0.6,1.07c0.12,0.03,0.25,0.04,0.37,0.02
	h6.51c0.61,0.04,1.13-0.43,1.16-1.03c0-0.03,0-0.06,0-0.1V51.9c-0.01-0.43,0.14-0.85,0.41-1.18c0.49-0.43,1.14-0.64,1.79-0.57
	c1.07-0.16,2.06,0.57,2.23,1.64c0.01,0.07,0.02,0.14,0.02,0.21v14.41c-0.16,0.44,0.08,0.93,0.52,1.09c0.13,0.05,0.28,0.06,0.42,0.04
	h6.86c0.46,0.07,0.9-0.24,0.97-0.7c0.02-0.14,0.01-0.29-0.04-0.42v-14.9C67.86,43.93,62.46,41.24,57.84,41.24L57.84,41.24z
	 M65.53,65.35H61V51.99c0-2.58-1.67-4.18-4.34-4.18c-1.3-0.08-2.58,0.4-3.51,1.32c-0.83,0.81-1.13,2.01-0.8,3.12v13.1h-4.42V43.57
	h4.18v0.73c0,0.44,0.25,0.85,0.65,1.05c0.4,0.19,0.87,0.15,1.23-0.12l0.31-0.24c0.96-0.91,2.22-1.42,3.54-1.42
	c1.8,0,7.69,0.57,7.69,7.94L65.53,65.35L65.53,65.35z M39.25,30.35c-2.45,0-4.44,1.99-4.44,4.44s1.99,4.44,4.44,4.44
	s4.44-1.99,4.44-4.44C43.69,32.34,41.7,30.36,39.25,30.35z M39.25,36.9c-1.16,0-2.11-0.94-2.11-2.11s0.94-2.11,2.11-2.11
	s2.11,0.94,2.11,2.11c0,0,0,0,0,0C41.36,35.96,40.41,36.9,39.25,36.9z M42.37,41.24h-6.48c-0.54-0.03-1,0.38-1.03,0.91
	c-0.01,0.1,0,0.19,0.03,0.29v24.01c-0.11,0.48,0.19,0.97,0.68,1.08c0.11,0.02,0.21,0.03,0.32,0.01h6.48
	c0.61,0.04,1.13-0.43,1.16-1.03c0-0.03,0-0.06,0-0.1V42.4C43.53,41.76,43.01,41.24,42.37,41.24C42.37,41.24,42.37,41.24,42.37,41.24
	L42.37,41.24z M41.43,65.35h-4.38V43.57h4.38L41.43,65.35z M50.16,15.07c-19.33,0-35,15.67-35,35s15.67,35,35,35s35-15.67,35-35
	C85.14,30.75,69.49,15.09,50.16,15.07z M50.16,82.74c-18.04,0-32.67-14.63-32.67-32.67s14.63-32.67,32.67-32.67
	c18.04,0,32.67,14.63,32.67,32.67C82.81,68.11,68.2,82.72,50.16,82.74z"/>
</svg>
