<?xml version="1.0" encoding="utf-8"?>
<!-- Generator: Adobe Illustrator 24.1.0, SVG Export Plug-In . SVG Version: 6.00 Build 0)  -->
<svg version="1.1" id="Layer_1" xmlns="http://www.w3.org/2000/svg" xmlns:xlink="http://www.w3.org/1999/xlink" x="0px" y="0px"
	 viewBox="0 0 100 100" style="enable-background:new 0 0 100 100;" xml:space="preserve">
<style type="text/css">
	.st0{opacity:0.6;enable-background:new    ;}
	.st1{fill:#FFFFFF;}
</style>
<circle id="Ellipse_1" class="st0" cx="50.16" cy="50.07" r="35"/>
<path id="twitter" class="st1" d="M50.17,15.07c-19.33,0-35,15.67-35,35s15.67,35,35,35s35-15.67,35-35l0,0
	C85.14,30.75,69.49,15.1,50.17,15.07z M50.17,82.74c-18.04,0-32.67-14.62-32.67-32.67c0-18.04,14.62-32.67,32.67-32.67
	c18.04,0,32.67,14.62,32.67,32.67c0,0,0,0,0,0C82.82,68.11,68.2,82.73,50.17,82.74z M69.37,39.26c0.24-0.45,0.44-0.92,0.6-1.4
	c0.19-0.61-0.15-1.27-0.76-1.46c-0.31-0.1-0.65-0.06-0.94,0.1c-1.12,0.66-2.33,1.16-3.59,1.47c-3.41-3.09-8.68-2.82-11.77,0.59
	c-1.38,1.53-2.15,3.52-2.15,5.59c0,0.12,0,0.23,0.01,0.34c-4.91-0.62-9.39-3.1-12.52-6.94c-0.41-0.5-1.14-0.57-1.64-0.17
	c-0.11,0.09-0.2,0.2-0.27,0.32c-1.45,2.5-1.51,5.57-0.14,8.12c-0.16,0.03-0.32,0.09-0.47,0.17c-0.36,0.23-0.58,0.62-0.58,1.05
	c0,2.42,1.05,4.72,2.88,6.3c-0.03,0.02-0.05,0.05-0.08,0.08c-0.27,0.31-0.36,0.74-0.24,1.13c0.75,2.33,2.49,4.22,4.75,5.16
	c-2.31,1.13-4.89,1.56-7.43,1.26c-0.54-0.05-1.05,0.26-1.24,0.77c-0.18,0.51,0.01,1.08,0.47,1.38c3.46,2.22,7.49,3.4,11.61,3.4
	c13.49,0,21.55-10.96,21.55-21.55c0-0.12,0-0.24,0-0.36c1.31-1.02,2.44-2.24,3.36-3.62c0.36-0.54,0.21-1.26-0.32-1.62
	C70.14,39.14,69.73,39.1,69.37,39.26L69.37,39.26z M65.56,43.09c-0.32,0.23-0.5,0.61-0.49,1.01c0.01,0.29,0.02,0.58,0.02,0.87
	c0,10.61-8.59,19.22-19.2,19.22c-2.15,0-4.29-0.36-6.32-1.07c2.43-0.46,4.71-1.51,6.65-3.03c0.51-0.4,0.6-1.13,0.2-1.64
	c-0.22-0.28-0.55-0.44-0.9-0.45c-1.91-0.04-3.69-0.98-4.79-2.54c0.55-0.04,1.09-0.13,1.62-0.27c0.62-0.17,0.99-0.81,0.82-1.43
	c-0.12-0.43-0.46-0.75-0.9-0.84c-2.17-0.44-3.91-2.04-4.54-4.16c0.58,0.15,1.17,0.23,1.77,0.25c0.52,0.01,0.98-0.32,1.15-0.81
	c0.16-0.5-0.03-1.04-0.46-1.33c-1.67-1.11-2.67-2.99-2.67-4.99c0-0.48,0.06-0.97,0.17-1.44c3.79,3.89,8.91,6.21,14.34,6.49
	c0.37,0.02,0.72-0.14,0.95-0.42c0.23-0.28,0.32-0.66,0.24-1.01c-0.1-0.45-0.16-0.91-0.15-1.37c0-3.31,2.69-6,6.01-5.99
	c1.66,0,3.24,0.69,4.37,1.89c0.28,0.29,0.68,0.42,1.08,0.35c0.36-0.07,0.72-0.16,1.07-0.25c-0.16,0.12-0.32,0.23-0.49,0.33
	c-0.55,0.33-0.73,1.04-0.4,1.6c0.24,0.4,0.68,0.62,1.14,0.56c0.13-0.01,0.26-0.03,0.4-0.05C66.01,42.75,65.78,42.93,65.56,43.09
	L65.56,43.09z"/>
</svg>
